<svg id="Layer_1" data-name="Layer 1" xmlns="http://www.w3.org/2000/svg" viewBox="0 0 34.93 41.86"><defs><style>.cls-1{fill:#900;}</style></defs><title>noun_Blockchain_1708008</title><path class="cls-1" d="M10.86,11H6.31a.55.55,0,0,1-.55-.55V5.86a.55.55,0,0,1,.55-.55h4.55a.55.55,0,0,1,.55.55v4.55A.55.55,0,0,1,10.86,11Zm-4-1.1h3.45V6.41H6.86Z" transform="translate(-5.76 -5.31)"/><path class="cls-1" d="M10.86,20H6.31a.55.55,0,0,1-.55-.55V14.92a.55.55,0,0,1,.55-.55h4.55a.55.55,0,0,1,.55.55v4.54A.55.55,0,0,1,10.86,20Zm-4-1.1h3.45V15.47H6.86Z" transform="translate(-5.76 -5.31)"/><path class="cls-1" d="M10.86,29.06H6.31a.55.55,0,0,1-.55-.55V24a.55.55,0,0,1,.55-.55h4.55a.55.55,0,0,1,.55.55v4.54A.55.55,0,0,1,10.86,29.06Zm-4-1.1h3.45V24.52H6.86Z" transform="translate(-5.76 -5.31)"/><path class="cls-1" d="M10.86,38.12H6.31a.55.55,0,0,1-.55-.55V33a.55.55,0,0,1,.55-.55h4.55a.55.55,0,0,1,.55.55v4.55A.55.55,0,0,1,10.86,38.12Zm-4-1.1h3.45V33.57H6.86Z" transform="translate(-5.76 -5.31)"/><rect class="cls-1" x="2.32" y="5.09" width="1" height="4.51"/><rect class="cls-1" x="2.32" y="14.15" width="1" height="4.51"/><rect class="cls-1" x="2.32" y="23.2" width="1" height="4.51"/><path class="cls-1" d="M20.62,20H16.07a.55.55,0,0,1-.55-.55V14.92a.55.55,0,0,1,.55-.55h4.55a.55.55,0,0,1,.55.55v4.54A.55.55,0,0,1,20.62,20Zm-4-1.1h3.45V15.47H16.62Z" transform="translate(-5.76 -5.31)"/><path class="cls-1" d="M20.62,29.06H16.07a.55.55,0,0,1-.55-.55V24a.55.55,0,0,1,.55-.55h4.55a.55.55,0,0,1,.55.55v4.54A.55.55,0,0,1,20.62,29.06Zm-4-1.1h3.45V24.52H16.62Z" transform="translate(-5.76 -5.31)"/><path class="cls-1" d="M20.62,38.12H16.07a.55.55,0,0,1-.55-.55V33a.55.55,0,0,1,.55-.55h4.55a.55.55,0,0,1,.55.55v4.55A.55.55,0,0,1,20.62,38.12Zm-4-1.1h3.45V33.57H16.62Z" transform="translate(-5.76 -5.31)"/><path class="cls-1" d="M20.62,47.17H16.07a.55.55,0,0,1-.55-.55V42.08a.55.55,0,0,1,.55-.55h4.55a.55.55,0,0,1,.55.55v4.54A.55.55,0,0,1,20.62,47.17Zm-4-1.1h3.45V42.62H16.62Z" transform="translate(-5.76 -5.31)"/><rect class="cls-1" x="12.08" y="14.15" width="1" height="4.51"/><rect class="cls-1" x="12.08" y="23.2" width="1" height="4.51"/><rect class="cls-1" x="12.08" y="32.25" width="1" height="4.51"/><path class="cls-1" d="M30.38,11H25.84a.55.55,0,0,1-.55-.55V5.86a.55.55,0,0,1,.55-.55h4.54a.55.55,0,0,1,.55.55v4.55A.55.55,0,0,1,30.38,11Zm-4-1.1h3.44V6.41H26.39Z" transform="translate(-5.76 -5.31)"/><path class="cls-1" d="M30.38,20H25.84a.54.54,0,0,1-.55-.55V14.92a.54.54,0,0,1,.55-.55h4.54a.54.54,0,0,1,.55.55v4.54A.54.54,0,0,1,30.38,20Zm-4-1.1h3.44V15.47H26.39Z" transform="translate(-5.76 -5.31)"/><path class="cls-1" d="M30.38,29.06H25.84a.54.54,0,0,1-.55-.55V24a.54.54,0,0,1,.55-.55h4.54a.54.54,0,0,1,.55.55v4.54A.54.54,0,0,1,30.38,29.06Zm-4-1.1h3.44V24.52H26.39Z" transform="translate(-5.76 -5.31)"/><path class="cls-1" d="M30.38,38.12H25.84a.55.55,0,0,1-.55-.55V33a.55.55,0,0,1,.55-.55h4.54a.55.55,0,0,1,.55.55v4.55A.55.55,0,0,1,30.38,38.12Zm-4-1.1h3.44V33.57H26.39Z" transform="translate(-5.76 -5.31)"/><rect class="cls-1" x="21.84" y="5.09" width="1" height="4.51"/><rect class="cls-1" x="21.84" y="14.15" width="1" height="4.51"/><rect class="cls-1" x="21.84" y="23.2" width="1" height="4.51"/><path class="cls-1" d="M40.14,20H35.6a.54.54,0,0,1-.55-.55V14.92a.54.54,0,0,1,.55-.55h4.54a.54.54,0,0,1,.55.55v4.54A.54.54,0,0,1,40.14,20Zm-4-1.1h3.44V15.47H36.15Z" transform="translate(-5.76 -5.31)"/><path class="cls-1" d="M40.14,29.06H35.6a.54.54,0,0,1-.55-.55V24a.54.54,0,0,1,.55-.55h4.54a.54.54,0,0,1,.55.55v4.54A.54.54,0,0,1,40.14,29.06Zm-4-1.1h3.44V24.52H36.15Z" transform="translate(-5.76 -5.31)"/><path class="cls-1" d="M40.14,38.12H35.6a.55.55,0,0,1-.55-.55V33a.55.55,0,0,1,.55-.55h4.54a.55.55,0,0,1,.55.55v4.55A.55.55,0,0,1,40.14,38.12Zm-4-1.1h3.44V33.57H36.15Z" transform="translate(-5.76 -5.31)"/><path class="cls-1" d="M40.14,47.17H35.6a.55.55,0,0,1-.55-.55V42.08a.54.54,0,0,1,.55-.55h4.54a.54.54,0,0,1,.55.55v4.54A.55.55,0,0,1,40.14,47.17Zm-4-1.1h3.44V42.62H36.15Z" transform="translate(-5.76 -5.31)"/><rect class="cls-1" x="31.61" y="14.15" width="1" height="4.51"/><rect class="cls-1" x="5.1" y="11.38" width="5.51" height="1"/><rect class="cls-1" x="14.71" y="11.38" width="5.51" height="1"/><rect class="cls-1" x="24.33" y="11.38" width="5.51" height="1"/><rect class="cls-1" x="5.1" y="20.43" width="5.51" height="1"/><rect class="cls-1" x="14.71" y="20.43" width="5.51" height="1"/><rect class="cls-1" x="24.33" y="20.43" width="5.51" height="1"/><rect class="cls-1" x="5.1" y="29.48" width="5.51" height="1"/><rect class="cls-1" x="14.71" y="29.48" width="5.51" height="1"/><rect class="cls-1" x="24.33" y="29.48" width="5.51" height="1"/><rect class="cls-1" x="31.61" y="23.2" width="1" height="4.51"/><rect class="cls-1" x="31.61" y="32.25" width="1" height="4.51"/><path class="cls-1" d="M10.86,11H6.31a.55.55,0,0,1-.55-.55V5.86a.55.55,0,0,1,.55-.55h4.55a.55.55,0,0,1,.55.55v4.55A.55.55,0,0,1,10.86,11Zm-4-1.1h3.45V6.41H6.86Z" transform="translate(-5.76 -5.31)"/><path class="cls-1" d="M10.86,20H6.31a.55.55,0,0,1-.55-.55V14.92a.55.55,0,0,1,.55-.55h4.55a.55.55,0,0,1,.55.55v4.54A.55.55,0,0,1,10.86,20Zm-4-1.1h3.45V15.47H6.86Z" transform="translate(-5.76 -5.31)"/><path class="cls-1" d="M10.86,29.06H6.31a.55.55,0,0,1-.55-.55V24a.55.55,0,0,1,.55-.55h4.55a.55.55,0,0,1,.55.55v4.54A.55.55,0,0,1,10.86,29.06Zm-4-1.1h3.45V24.52H6.86Z" transform="translate(-5.76 -5.31)"/><path class="cls-1" d="M10.86,38.12H6.31a.55.55,0,0,1-.55-.55V33a.55.55,0,0,1,.55-.55h4.55a.55.55,0,0,1,.55.55v4.55A.55.55,0,0,1,10.86,38.12Zm-4-1.1h3.45V33.57H6.86Z" transform="translate(-5.76 -5.31)"/><rect class="cls-1" x="2.32" y="5.09" width="1" height="4.51"/><rect class="cls-1" x="2.32" y="14.15" width="1" height="4.51"/><rect class="cls-1" x="2.32" y="23.2" width="1" height="4.51"/><path class="cls-1" d="M20.62,20H16.07a.55.55,0,0,1-.55-.55V14.92a.55.55,0,0,1,.55-.55h4.55a.55.55,0,0,1,.55.55v4.54A.55.55,0,0,1,20.62,20Zm-4-1.1h3.45V15.47H16.62Z" transform="translate(-5.76 -5.31)"/><path class="cls-1" d="M20.62,29.06H16.07a.55.55,0,0,1-.55-.55V24a.55.55,0,0,1,.55-.55h4.55a.55.55,0,0,1,.55.55v4.54A.55.55,0,0,1,20.62,29.06Zm-4-1.1h3.45V24.52H16.62Z" transform="translate(-5.76 -5.31)"/><path class="cls-1" d="M20.62,38.12H16.07a.55.55,0,0,1-.55-.55V33a.55.55,0,0,1,.55-.55h4.55a.55.55,0,0,1,.55.55v4.55A.55.55,0,0,1,20.62,38.12Zm-4-1.1h3.45V33.57H16.62Z" transform="translate(-5.76 -5.31)"/><path class="cls-1" d="M20.62,47.17H16.07a.55.55,0,0,1-.55-.55V42.08a.55.55,0,0,1,.55-.55h4.55a.55.55,0,0,1,.55.55v4.54A.55.55,0,0,1,20.62,47.17Zm-4-1.1h3.45V42.62H16.62Z" transform="translate(-5.76 -5.31)"/><rect class="cls-1" x="12.08" y="14.15" width="1" height="4.51"/><rect class="cls-1" x="12.08" y="23.2" width="1" height="4.51"/><rect class="cls-1" x="12.08" y="32.25" width="1" height="4.51"/><path class="cls-1" d="M30.38,11H25.84a.55.55,0,0,1-.55-.55V5.86a.55.55,0,0,1,.55-.55h4.54a.55.55,0,0,1,.55.55v4.55A.55.55,0,0,1,30.38,11Zm-4-1.1h3.44V6.41H26.39Z" transform="translate(-5.76 -5.31)"/><path class="cls-1" d="M30.38,20H25.84a.54.54,0,0,1-.55-.55V14.92a.54.54,0,0,1,.55-.55h4.54a.54.54,0,0,1,.55.55v4.54A.54.54,0,0,1,30.38,20Zm-4-1.1h3.44V15.47H26.39Z" transform="translate(-5.76 -5.31)"/><path class="cls-1" d="M30.38,29.06H25.84a.54.54,0,0,1-.55-.55V24a.54.54,0,0,1,.55-.55h4.54a.54.54,0,0,1,.55.55v4.54A.54.54,0,0,1,30.38,29.06Zm-4-1.1h3.44V24.52H26.39Z" transform="translate(-5.76 -5.31)"/><path class="cls-1" d="M30.38,38.12H25.84a.55.55,0,0,1-.55-.55V33a.55.55,0,0,1,.55-.55h4.54a.55.55,0,0,1,.55.55v4.55A.55.55,0,0,1,30.38,38.12Zm-4-1.1h3.44V33.57H26.39Z" transform="translate(-5.76 -5.31)"/><rect class="cls-1" x="21.84" y="5.09" width="1" height="4.51"/><rect class="cls-1" x="21.84" y="14.15" width="1" height="4.51"/><rect class="cls-1" x="21.84" y="23.2" width="1" height="4.51"/><path class="cls-1" d="M40.14,20H35.6a.54.54,0,0,1-.55-.55V14.92a.54.54,0,0,1,.55-.55h4.54a.54.54,0,0,1,.55.55v4.54A.54.54,0,0,1,40.14,20Zm-4-1.1h3.44V15.47H36.15Z" transform="translate(-5.76 -5.31)"/><path class="cls-1" d="M40.14,29.06H35.6a.54.54,0,0,1-.55-.55V24a.54.54,0,0,1,.55-.55h4.54a.54.54,0,0,1,.55.55v4.54A.54.54,0,0,1,40.14,29.06Zm-4-1.1h3.44V24.52H36.15Z" transform="translate(-5.76 -5.31)"/><path class="cls-1" d="M40.14,38.12H35.6a.55.55,0,0,1-.55-.55V33a.55.55,0,0,1,.55-.55h4.54a.55.55,0,0,1,.55.55v4.55A.55.55,0,0,1,40.14,38.12Zm-4-1.1h3.44V33.57H36.15Z" transform="translate(-5.76 -5.31)"/><path class="cls-1" d="M40.14,47.17H35.6a.55.55,0,0,1-.55-.55V42.08a.54.54,0,0,1,.55-.55h4.54a.54.54,0,0,1,.55.55v4.54A.55.55,0,0,1,40.14,47.17Zm-4-1.1h3.44V42.62H36.15Z" transform="translate(-5.76 -5.31)"/><rect class="cls-1" x="31.61" y="14.15" width="1" height="4.51"/><rect class="cls-1" x="5.1" y="11.38" width="5.51" height="1"/><rect class="cls-1" x="14.71" y="11.38" width="5.51" height="1"/><rect class="cls-1" x="24.33" y="11.38" width="5.51" height="1"/><rect class="cls-1" x="5.1" y="20.43" width="5.51" height="1"/><rect class="cls-1" x="14.71" y="20.43" width="5.51" height="1"/><rect class="cls-1" x="24.33" y="20.43" width="5.51" height="1"/><rect class="cls-1" x="5.1" y="29.48" width="5.51" height="1"/><rect class="cls-1" x="14.71" y="29.48" width="5.51" height="1"/><rect class="cls-1" x="24.33" y="29.48" width="5.51" height="1"/><rect class="cls-1" x="31.61" y="23.2" width="1" height="4.51"/><rect class="cls-1" x="31.61" y="32.25" width="1" height="4.51"/></svg>