<svg id="Layer_1" data-name="Layer 1" xmlns="http://www.w3.org/2000/svg" viewBox="0 0 72 88"><defs><style>.cls-1{fill:#900;}</style></defs><title>noun_Data_1743059</title><path class="cls-1" d="M50,6c-9.63,0-18.35,1.7-24.84,4.56a24.75,24.75,0,0,0-7.94,5.19A10.6,10.6,0,0,0,14,23V77a10.53,10.53,0,0,0,3.22,7.22,24.79,24.79,0,0,0,7.94,5.22C31.65,92.3,40.37,94,50,94s18.35-1.7,24.84-4.56a24.79,24.79,0,0,0,7.94-5.22A10.53,10.53,0,0,0,86,77V23a10.6,10.6,0,0,0-3.22-7.25,24.75,24.75,0,0,0-7.94-5.19C68.35,7.7,59.63,6,50,6Zm0,4c9.15,0,17.41,1.66,23.22,4.22a21.05,21.05,0,0,1,6.65,4.31A6.48,6.48,0,0,1,82,23a6.42,6.42,0,0,1-2.13,4.44,21.05,21.05,0,0,1-6.65,4.31C67.41,34.31,59.15,36,50,36s-17.41-1.69-23.22-4.25a21.23,21.23,0,0,1-6.66-4.31A6.44,6.44,0,0,1,18,23a6.51,6.51,0,0,1,2.12-4.47,21.23,21.23,0,0,1,6.66-4.31C32.59,11.66,40.85,10,50,10ZM18,31a26.29,26.29,0,0,0,7.16,4.47C31.65,38.3,40.37,40,50,40s18.35-1.7,24.84-4.56A26.29,26.29,0,0,0,82,31V41a6.42,6.42,0,0,1-2.13,4.44,21.05,21.05,0,0,1-6.65,4.31C67.41,52.31,59.15,54,50,54s-17.41-1.69-23.22-4.25a21.23,21.23,0,0,1-6.66-4.31A6.44,6.44,0,0,1,18,41Zm0,18a26.29,26.29,0,0,0,7.16,4.47C31.65,56.3,40.37,58,50,58s18.35-1.7,24.84-4.56A26.29,26.29,0,0,0,82,49V59a6.42,6.42,0,0,1-2.13,4.44,21.05,21.05,0,0,1-6.65,4.31C67.41,70.31,59.15,72,50,72s-17.41-1.69-23.22-4.25a21.23,21.23,0,0,1-6.66-4.31A6.44,6.44,0,0,1,18,59V49Zm0,18a26.29,26.29,0,0,0,7.16,4.47C31.65,74.3,40.37,76,50,76s18.35-1.7,24.84-4.56A26.29,26.29,0,0,0,82,67V77a6.42,6.42,0,0,1-2.13,4.44,20.88,20.88,0,0,1-6.62,4.31C67.44,88.31,59.15,90,50,90s-17.41-1.69-23.22-4.25a21.23,21.23,0,0,1-6.66-4.31A6.44,6.44,0,0,1,18,77V67Z" transform="translate(-14 -6)"/></svg>