<svg id="Layer_1" data-name="Layer 1" xmlns="http://www.w3.org/2000/svg" viewBox="0 0 274.02 97.03"><defs><style>.cls-1{fill:none;stroke-width:2px;}.cls-1,.cls-2{stroke:#900;stroke-miterlimit:10;}.cls-2,.cls-3{fill:#900;}.cls-4{fill:#777;}</style></defs><title>noun_seller_1507013</title><circle class="cls-1" cx="11.29" cy="30.63" r="8.86"/><path class="cls-1" d="M51.9,205.2a3.52,3.52,0,0,0-4.85-1c-4.3,2.79-7.53,4-9.6,3.5-1.62-.36-2.92-1.77-4.91-4-2.25-2.55-5.05-5.73-9.58-7.45a3.57,3.57,0,0,0-1-.21c-3.69-1.1-8.21-1.4-11.1,1.49-.78.79-2.81,2.34-2.81,8.46v18.49H28.22l-.7-15.87c2.25,2.55,4.61,5.11,8.39,6a11.29,11.29,0,0,0,2.48.27c3.52,0,7.56-1.54,12.48-4.73A3.51,3.51,0,0,0,51.9,205.2Z" transform="translate(-7.05 -153.18)"/><path class="cls-2" d="M44.09,182.09a12.75,12.75,0,0,0-5,.91,5,5,0,0,0-1.6,1,2.18,2.18,0,0,0-.64,1.46v10.84a2.13,2.13,0,0,0,.64,1.45,4.88,4.88,0,0,0,1.6,1.05,12.56,12.56,0,0,0,5,.92,12.54,12.54,0,0,0,5-.92,4.88,4.88,0,0,0,1.6-1.05,2.1,2.1,0,0,0,.65-1.45V185.5a2.14,2.14,0,0,0-.65-1.46,5,5,0,0,0-1.6-1A12.73,12.73,0,0,0,44.09,182.09Zm0,.8a11.9,11.9,0,0,1,4.66.85,4.06,4.06,0,0,1,1.33.86,1.31,1.31,0,0,1,.43.9,1.28,1.28,0,0,1-.43.89,4.09,4.09,0,0,1-1.33.87,13.23,13.23,0,0,1-9.33,0,4.2,4.2,0,0,1-1.33-.87,1.28,1.28,0,0,1-.43-.89,1.31,1.31,0,0,1,.43-.9,4.17,4.17,0,0,1,1.33-.86A11.92,11.92,0,0,1,44.09,182.89Zm-6.43,4.22a5.34,5.34,0,0,0,1.44.89,12.75,12.75,0,0,0,5,.91,12.73,12.73,0,0,0,5-.91,5.34,5.34,0,0,0,1.44-.89v2a1.29,1.29,0,0,1-.43.9,4.06,4.06,0,0,1-1.33.86,13.08,13.08,0,0,1-9.33,0,4.17,4.17,0,0,1-1.33-.86,1.29,1.29,0,0,1-.43-.9Zm0,3.61a5.13,5.13,0,0,0,1.44.9,12.75,12.75,0,0,0,5,.91,12.54,12.54,0,0,0,5-.92,5.34,5.34,0,0,0,1.44-.89v2a1.28,1.28,0,0,1-.43.89,4.09,4.09,0,0,1-1.33.87,13.23,13.23,0,0,1-9.33,0,4.37,4.37,0,0,1-1.33-.87,1.28,1.28,0,0,1-.43-.89Zm0,3.62a5.34,5.34,0,0,0,1.44.89,12.75,12.75,0,0,0,5,.91,12.73,12.73,0,0,0,5-.91,5.34,5.34,0,0,0,1.44-.89v2a1.29,1.29,0,0,1-.43.9,4.12,4.12,0,0,1-1.32.86,12,12,0,0,1-4.67.85,11.92,11.92,0,0,1-4.67-.85,4.17,4.17,0,0,1-1.33-.86,1.29,1.29,0,0,1-.43-.9Z" transform="translate(-7.05 -153.18)"/><path class="cls-3" d="M247.74,189.8a7.19,7.19,0,1,0-7.18-7.19A7.2,7.2,0,0,0,247.74,189.8Zm0-12.15a5,5,0,1,1-5,5A5,5,0,0,1,247.74,177.65Z" transform="translate(-7.05 -153.18)"/><path class="cls-3" d="M254.72,211.38a4.72,4.72,0,0,0,3.25-4.5v-11a4.73,4.73,0,0,0-4.73-4.73h-11a4.73,4.73,0,0,0-4.73,4.73v11a4.72,4.72,0,0,0,3.25,4.5v10.8a4.69,4.69,0,0,0,4.68,4.68H250a4.69,4.69,0,0,0,4.68-4.68v-10.8Zm-2.22-.9v11.7a2.46,2.46,0,0,1-2.46,2.45h-4.6a2.46,2.46,0,0,1-2.46-2.45v-11.7a1.11,1.11,0,0,0-1-1.1,2.51,2.51,0,0,1-2.25-2.5v-11a2.52,2.52,0,0,1,2.51-2.51h11a2.51,2.51,0,0,1,2.51,2.51v11a2.51,2.51,0,0,1-2.25,2.5A1.11,1.11,0,0,0,252.5,210.48Z" transform="translate(-7.05 -153.18)"/><path class="cls-3" d="M263.66,187.06a7.19,7.19,0,1,0,7.19-7.19A7.19,7.19,0,0,0,263.66,187.06Zm7.19-5a5,5,0,1,1-5,5A5,5,0,0,1,270.85,182.09Z" transform="translate(-7.05 -153.18)"/><path class="cls-3" d="M276.34,195.57h-11a4.73,4.73,0,0,0-4.73,4.73v11a4.72,4.72,0,0,0,3.24,4.5v6.36a4.69,4.69,0,0,0,4.69,4.68h4.59a4.69,4.69,0,0,0,4.69-4.68v-6.36a4.71,4.71,0,0,0,3.25-4.5v-11A4.74,4.74,0,0,0,276.34,195.57Zm2.52,15.75a2.5,2.5,0,0,1-2.25,2.5,1.12,1.12,0,0,0-1,1.11v7.25a2.46,2.46,0,0,1-2.47,2.45h-4.59a2.46,2.46,0,0,1-2.46-2.45v-7.25a1.12,1.12,0,0,0-1-1.11,2.49,2.49,0,0,1-2.25-2.5v-11a2.51,2.51,0,0,1,2.51-2.51h11a2.52,2.52,0,0,1,2.52,2.51Z" transform="translate(-7.05 -153.18)"/><path class="cls-3" d="M224.64,194.24a7.19,7.19,0,1,0-7.19-7.18A7.19,7.19,0,0,0,224.64,194.24Zm0-12.15a5,5,0,1,1-5,5A5,5,0,0,1,224.64,182.09Z" transform="translate(-7.05 -153.18)"/><path class="cls-3" d="M217.66,215.82v6.36a4.69,4.69,0,0,0,4.68,4.68h4.6a4.69,4.69,0,0,0,4.68-4.68v-6.36a4.71,4.71,0,0,0,3.25-4.5v-11a4.73,4.73,0,0,0-4.73-4.73h-11a4.73,4.73,0,0,0-4.73,4.73v11A4.71,4.71,0,0,0,217.66,215.82Zm-1-15.52a2.52,2.52,0,0,1,2.51-2.51h11a2.52,2.52,0,0,1,2.51,2.51v11a2.5,2.5,0,0,1-2.25,2.5,1.12,1.12,0,0,0-1,1.11v7.25a2.46,2.46,0,0,1-2.47,2.45h-4.59a2.46,2.46,0,0,1-2.46-2.45v-7.25a1.12,1.12,0,0,0-1-1.11,2.5,2.5,0,0,1-2.25-2.5Z" transform="translate(-7.05 -153.18)"/><path class="cls-3" d="M105.22,166.27H94.68A1.27,1.27,0,0,1,93.41,165V154.46a1.28,1.28,0,0,1,1.27-1.28h10.54a1.28,1.28,0,0,1,1.28,1.28V165A1.28,1.28,0,0,1,105.22,166.27ZM96,163.72h8v-8H96Z" transform="translate(-7.05 -153.18)"/><path class="cls-3" d="M105.22,187.26H94.68A1.27,1.27,0,0,1,93.41,186V175.44a1.27,1.27,0,0,1,1.27-1.27h10.54a1.27,1.27,0,0,1,1.28,1.27V186A1.28,1.28,0,0,1,105.22,187.26ZM96,184.71h8v-8H96Z" transform="translate(-7.05 -153.18)"/><path class="cls-3" d="M105.22,208.24H94.68A1.27,1.27,0,0,1,93.41,207V196.43a1.28,1.28,0,0,1,1.27-1.28h10.54a1.28,1.28,0,0,1,1.28,1.28V207A1.27,1.27,0,0,1,105.22,208.24ZM96,205.69h8v-8H96Z" transform="translate(-7.05 -153.18)"/><path class="cls-3" d="M105.22,229.23H94.68A1.27,1.27,0,0,1,93.41,228V217.42a1.27,1.27,0,0,1,1.27-1.28h10.54a1.28,1.28,0,0,1,1.28,1.28V228A1.28,1.28,0,0,1,105.22,229.23ZM96,226.68h8v-8H96Z" transform="translate(-7.05 -153.18)"/><rect class="cls-3" x="91.74" y="11.81" width="2.32" height="10.45"/><rect class="cls-3" x="91.74" y="32.8" width="2.32" height="10.45"/><rect class="cls-3" x="91.74" y="53.78" width="2.32" height="10.45"/><path class="cls-3" d="M127.85,187.26H117.31A1.27,1.27,0,0,1,116,186V175.44a1.27,1.27,0,0,1,1.27-1.27h10.54a1.27,1.27,0,0,1,1.27,1.27V186A1.27,1.27,0,0,1,127.85,187.26Zm-9.26-2.55h8v-8h-8Z" transform="translate(-7.05 -153.18)"/><path class="cls-3" d="M127.85,208.24H117.31A1.27,1.27,0,0,1,116,207V196.43a1.28,1.28,0,0,1,1.27-1.28h10.54a1.28,1.28,0,0,1,1.27,1.28V207A1.27,1.27,0,0,1,127.85,208.24Zm-9.26-2.55h8v-8h-8Z" transform="translate(-7.05 -153.18)"/><path class="cls-3" d="M127.85,229.23H117.31A1.27,1.27,0,0,1,116,228V217.42a1.27,1.27,0,0,1,1.27-1.28h10.54a1.27,1.27,0,0,1,1.27,1.28V228A1.27,1.27,0,0,1,127.85,229.23Zm-9.26-2.55h8v-8h-8Z" transform="translate(-7.05 -153.18)"/><path class="cls-3" d="M127.85,250.21H117.31a1.27,1.27,0,0,1-1.27-1.27V238.4a1.27,1.27,0,0,1,1.27-1.27h10.54a1.27,1.27,0,0,1,1.27,1.27v10.54A1.27,1.27,0,0,1,127.85,250.21Zm-9.26-2.55h8v-8h-8Z" transform="translate(-7.05 -153.18)"/><rect class="cls-3" x="114.37" y="32.8" width="2.32" height="10.45"/><rect class="cls-3" x="114.37" y="53.78" width="2.32" height="10.45"/><rect class="cls-3" x="114.37" y="74.77" width="2.32" height="10.45"/><path class="cls-3" d="M150.47,166.27H139.94a1.28,1.28,0,0,1-1.28-1.28V154.46a1.29,1.29,0,0,1,1.28-1.28h10.53a1.28,1.28,0,0,1,1.28,1.28V165A1.28,1.28,0,0,1,150.47,166.27Zm-9.26-2.55h8v-8h-8Z" transform="translate(-7.05 -153.18)"/><path class="cls-3" d="M150.47,187.26H139.94a1.28,1.28,0,0,1-1.28-1.28V175.44a1.28,1.28,0,0,1,1.28-1.27h10.53a1.27,1.27,0,0,1,1.28,1.27V186A1.28,1.28,0,0,1,150.47,187.26Zm-9.26-2.55h8v-8h-8Z" transform="translate(-7.05 -153.18)"/><path class="cls-3" d="M150.47,208.24H139.94a1.28,1.28,0,0,1-1.28-1.27V196.43a1.29,1.29,0,0,1,1.28-1.28h10.53a1.28,1.28,0,0,1,1.28,1.28V207A1.27,1.27,0,0,1,150.47,208.24Zm-9.26-2.55h8v-8h-8Z" transform="translate(-7.05 -153.18)"/><path class="cls-3" d="M150.47,229.23H139.94a1.28,1.28,0,0,1-1.28-1.28V217.42a1.28,1.28,0,0,1,1.28-1.28h10.53a1.28,1.28,0,0,1,1.28,1.28V228A1.28,1.28,0,0,1,150.47,229.23Zm-9.26-2.55h8v-8h-8Z" transform="translate(-7.05 -153.18)"/><rect class="cls-3" x="136.99" y="11.81" width="2.32" height="10.45"/><rect class="cls-3" x="136.99" y="32.8" width="2.32" height="10.45"/><rect class="cls-3" x="136.99" y="53.78" width="2.32" height="10.45"/><path class="cls-3" d="M173.1,187.26H162.57a1.28,1.28,0,0,1-1.28-1.28V175.44a1.27,1.27,0,0,1,1.28-1.27H173.1a1.27,1.27,0,0,1,1.28,1.27V186A1.28,1.28,0,0,1,173.1,187.26Zm-9.26-2.55h8v-8h-8Z" transform="translate(-7.05 -153.18)"/><path class="cls-3" d="M173.1,208.24H162.57a1.27,1.27,0,0,1-1.28-1.27V196.43a1.28,1.28,0,0,1,1.28-1.28H173.1a1.28,1.28,0,0,1,1.28,1.28V207A1.27,1.27,0,0,1,173.1,208.24Zm-9.26-2.55h8v-8h-8Z" transform="translate(-7.05 -153.18)"/><path class="cls-3" d="M173.1,229.23H162.57a1.28,1.28,0,0,1-1.28-1.28V217.42a1.28,1.28,0,0,1,1.28-1.28H173.1a1.28,1.28,0,0,1,1.28,1.28V228A1.28,1.28,0,0,1,173.1,229.23Zm-9.26-2.55h8v-8h-8Z" transform="translate(-7.05 -153.18)"/><path class="cls-3" d="M173.1,250.21H162.57a1.27,1.27,0,0,1-1.28-1.27V238.4a1.27,1.27,0,0,1,1.28-1.27H173.1a1.27,1.27,0,0,1,1.28,1.27v10.54A1.27,1.27,0,0,1,173.1,250.21Zm-9.26-2.55h8v-8h-8Z" transform="translate(-7.05 -153.18)"/><rect class="cls-3" x="159.62" y="32.8" width="2.32" height="10.45"/><rect class="cls-3" x="98.17" y="26.37" width="12.77" height="2.32"/><rect class="cls-3" x="120.46" y="26.37" width="12.77" height="2.32"/><rect class="cls-3" x="142.74" y="26.37" width="12.77" height="2.32"/><rect class="cls-3" x="98.17" y="47.36" width="12.77" height="2.32"/><rect class="cls-3" x="120.46" y="47.36" width="12.77" height="2.32"/><rect class="cls-3" x="142.74" y="47.36" width="12.77" height="2.32"/><rect class="cls-3" x="98.17" y="68.34" width="12.77" height="2.32"/><rect class="cls-3" x="120.46" y="68.34" width="12.77" height="2.32"/><rect class="cls-3" x="142.74" y="68.34" width="12.77" height="2.32"/><rect class="cls-3" x="159.62" y="53.78" width="2.32" height="10.45"/><rect class="cls-3" x="159.62" y="74.77" width="2.32" height="10.45"/><path class="cls-3" d="M105.22,166.27H94.68A1.27,1.27,0,0,1,93.41,165V154.46a1.28,1.28,0,0,1,1.27-1.28h10.54a1.28,1.28,0,0,1,1.28,1.28V165A1.28,1.28,0,0,1,105.22,166.27ZM96,163.72h8v-8H96Z" transform="translate(-7.05 -153.18)"/><path class="cls-3" d="M105.22,187.26H94.68A1.27,1.27,0,0,1,93.41,186V175.44a1.27,1.27,0,0,1,1.27-1.27h10.54a1.27,1.27,0,0,1,1.28,1.27V186A1.28,1.28,0,0,1,105.22,187.26ZM96,184.71h8v-8H96Z" transform="translate(-7.05 -153.18)"/><path class="cls-3" d="M105.22,208.24H94.68A1.27,1.27,0,0,1,93.41,207V196.43a1.28,1.28,0,0,1,1.27-1.28h10.54a1.28,1.28,0,0,1,1.28,1.28V207A1.27,1.27,0,0,1,105.22,208.24ZM96,205.69h8v-8H96Z" transform="translate(-7.05 -153.18)"/><path class="cls-3" d="M105.22,229.23H94.68A1.27,1.27,0,0,1,93.41,228V217.42a1.27,1.27,0,0,1,1.27-1.28h10.54a1.28,1.28,0,0,1,1.28,1.28V228A1.28,1.28,0,0,1,105.22,229.23ZM96,226.68h8v-8H96Z" transform="translate(-7.05 -153.18)"/><rect class="cls-3" x="91.74" y="11.81" width="2.32" height="10.45"/><rect class="cls-3" x="91.74" y="32.8" width="2.32" height="10.45"/><rect class="cls-3" x="91.74" y="53.78" width="2.32" height="10.45"/><path class="cls-3" d="M127.85,187.26H117.31A1.27,1.27,0,0,1,116,186V175.44a1.27,1.27,0,0,1,1.27-1.27h10.54a1.27,1.27,0,0,1,1.27,1.27V186A1.27,1.27,0,0,1,127.85,187.26Zm-9.26-2.55h8v-8h-8Z" transform="translate(-7.05 -153.18)"/><path class="cls-3" d="M127.85,208.24H117.31A1.27,1.27,0,0,1,116,207V196.43a1.28,1.28,0,0,1,1.27-1.28h10.54a1.28,1.28,0,0,1,1.27,1.28V207A1.27,1.27,0,0,1,127.85,208.24Zm-9.26-2.55h8v-8h-8Z" transform="translate(-7.05 -153.18)"/><path class="cls-3" d="M127.85,229.23H117.31A1.27,1.27,0,0,1,116,228V217.42a1.27,1.27,0,0,1,1.27-1.28h10.54a1.27,1.27,0,0,1,1.27,1.28V228A1.27,1.27,0,0,1,127.85,229.23Zm-9.26-2.55h8v-8h-8Z" transform="translate(-7.05 -153.18)"/><path class="cls-3" d="M127.85,250.21H117.31a1.27,1.27,0,0,1-1.27-1.27V238.4a1.27,1.27,0,0,1,1.27-1.27h10.54a1.27,1.27,0,0,1,1.27,1.27v10.54A1.27,1.27,0,0,1,127.85,250.21Zm-9.26-2.55h8v-8h-8Z" transform="translate(-7.05 -153.18)"/><rect class="cls-3" x="114.37" y="32.8" width="2.32" height="10.45"/><rect class="cls-3" x="114.37" y="53.78" width="2.32" height="10.45"/><rect class="cls-3" x="114.37" y="74.77" width="2.32" height="10.45"/><path class="cls-3" d="M150.47,166.27H139.94a1.28,1.28,0,0,1-1.28-1.28V154.46a1.29,1.29,0,0,1,1.28-1.28h10.53a1.28,1.28,0,0,1,1.28,1.28V165A1.28,1.28,0,0,1,150.47,166.27Zm-9.26-2.55h8v-8h-8Z" transform="translate(-7.05 -153.18)"/><path class="cls-3" d="M150.47,187.26H139.94a1.28,1.28,0,0,1-1.28-1.28V175.44a1.28,1.28,0,0,1,1.28-1.27h10.53a1.27,1.27,0,0,1,1.28,1.27V186A1.28,1.28,0,0,1,150.47,187.26Zm-9.26-2.55h8v-8h-8Z" transform="translate(-7.05 -153.18)"/><path class="cls-3" d="M150.47,208.24H139.94a1.28,1.28,0,0,1-1.28-1.27V196.43a1.29,1.29,0,0,1,1.28-1.28h10.53a1.28,1.28,0,0,1,1.28,1.28V207A1.27,1.27,0,0,1,150.47,208.24Zm-9.26-2.55h8v-8h-8Z" transform="translate(-7.05 -153.18)"/><path class="cls-3" d="M150.47,229.23H139.94a1.28,1.28,0,0,1-1.28-1.28V217.42a1.28,1.28,0,0,1,1.28-1.28h10.53a1.28,1.28,0,0,1,1.28,1.28V228A1.28,1.28,0,0,1,150.47,229.23Zm-9.26-2.55h8v-8h-8Z" transform="translate(-7.05 -153.18)"/><rect class="cls-3" x="136.99" y="11.81" width="2.32" height="10.45"/><rect class="cls-3" x="136.99" y="32.8" width="2.32" height="10.45"/><rect class="cls-3" x="136.99" y="53.78" width="2.32" height="10.45"/><path class="cls-3" d="M173.1,187.26H162.57a1.28,1.28,0,0,1-1.28-1.28V175.44a1.27,1.27,0,0,1,1.28-1.27H173.1a1.27,1.27,0,0,1,1.28,1.27V186A1.28,1.28,0,0,1,173.1,187.26Zm-9.26-2.55h8v-8h-8Z" transform="translate(-7.05 -153.18)"/><path class="cls-3" d="M173.1,208.24H162.57a1.27,1.27,0,0,1-1.28-1.27V196.43a1.28,1.28,0,0,1,1.28-1.28H173.1a1.28,1.28,0,0,1,1.28,1.28V207A1.27,1.27,0,0,1,173.1,208.24Zm-9.26-2.55h8v-8h-8Z" transform="translate(-7.05 -153.18)"/><path class="cls-3" d="M173.1,229.23H162.57a1.28,1.28,0,0,1-1.28-1.28V217.42a1.28,1.28,0,0,1,1.28-1.28H173.1a1.28,1.28,0,0,1,1.28,1.28V228A1.28,1.28,0,0,1,173.1,229.23Zm-9.26-2.55h8v-8h-8Z" transform="translate(-7.05 -153.18)"/><path class="cls-3" d="M173.1,250.21H162.57a1.27,1.27,0,0,1-1.28-1.27V238.4a1.27,1.27,0,0,1,1.28-1.27H173.1a1.27,1.27,0,0,1,1.28,1.27v10.54A1.27,1.27,0,0,1,173.1,250.21Zm-9.26-2.55h8v-8h-8Z" transform="translate(-7.05 -153.18)"/><rect class="cls-3" x="159.62" y="32.8" width="2.32" height="10.45"/><rect class="cls-3" x="98.17" y="26.37" width="12.77" height="2.32"/><rect class="cls-3" x="120.46" y="26.37" width="12.77" height="2.32"/><rect class="cls-3" x="142.74" y="26.37" width="12.77" height="2.32"/><rect class="cls-3" x="98.17" y="47.36" width="12.77" height="2.32"/><rect class="cls-3" x="120.46" y="47.36" width="12.77" height="2.32"/><rect class="cls-3" x="142.74" y="47.36" width="12.77" height="2.32"/><rect class="cls-3" x="98.17" y="68.34" width="12.77" height="2.32"/><rect class="cls-3" x="120.46" y="68.34" width="12.77" height="2.32"/><rect class="cls-3" x="142.74" y="68.34" width="12.77" height="2.32"/><rect class="cls-3" x="159.62" y="53.78" width="2.32" height="10.45"/><rect class="cls-3" x="159.62" y="74.77" width="2.32" height="10.45"/><path class="cls-4" d="M80.82,199.54a.3.3,0,0,0-.12.21h0v5.87h0a.39.39,0,0,0,.11.22.3.3,0,0,0,.41,0l2.43-2.92a.26.26,0,0,0,.07-.18.28.28,0,0,0-.07-.19l-2.43-2.91A.28.28,0,0,0,80.82,199.54Z" transform="translate(-7.05 -153.18)"/><circle class="cls-4" cx="69.77" cy="49.49" r="1.37"/><circle class="cls-4" cx="64.53" cy="49.49" r="1.37"/><circle class="cls-4" cx="59.21" cy="49.49" r="1.37"/><path class="cls-4" d="M203.74,202.68l-2.43-2.92a.3.3,0,0,0-.41,0,.29.29,0,0,0-.11.21h0v5.86h0a.29.29,0,0,0,.11.21.29.29,0,0,0,.4,0l2.44-2.92a.3.3,0,0,0,.06-.18.28.28,0,0,0-.06-.18" transform="translate(-7.05 -153.18)"/><circle class="cls-4" cx="189.86" cy="49.67" r="1.37"/><circle class="cls-4" cx="184.62" cy="49.67" r="1.37"/><circle class="cls-4" cx="179.3" cy="49.67" r="1.37"/></svg>