<svg id="Layer_1" data-name="Layer 1" xmlns="http://www.w3.org/2000/svg" viewBox="0 0 90 69.43"><defs><style>.cls-1{fill:#900;}</style></defs><title>noun_people group_1150846</title><path class="cls-1" d="M50,37.38a9.7,9.7,0,1,0-9.7-9.7A9.71,9.71,0,0,0,50,37.38ZM50,21a6.7,6.7,0,1,1-6.7,6.7A6.71,6.71,0,0,1,50,21Z" transform="translate(-5 -17.98)"/><path class="cls-1" d="M59.43,66.51a6.37,6.37,0,0,0,4.38-6.07V45.56a6.4,6.4,0,0,0-6.39-6.39H42.58a6.4,6.4,0,0,0-6.39,6.39V60.44a6.37,6.37,0,0,0,4.38,6.07V81.09a6.34,6.34,0,0,0,6.33,6.32h6.2a6.33,6.33,0,0,0,6.32-6.32V66.51Zm-3-1.21V81.09a3.33,3.33,0,0,1-3.33,3.32H46.9a3.33,3.33,0,0,1-3.33-3.32V65.3a1.5,1.5,0,0,0-1.34-1.49,3.38,3.38,0,0,1-3-3.37V45.56a3.39,3.39,0,0,1,3.39-3.39H57.42a3.39,3.39,0,0,1,3.39,3.39V60.44a3.38,3.38,0,0,1-3,3.37A1.5,1.5,0,0,0,56.43,65.3Z" transform="translate(-5 -17.98)"/><path class="cls-1" d="M71.49,33.68a9.7,9.7,0,1,0,9.7-9.7A9.71,9.71,0,0,0,71.49,33.68Zm9.7-6.7a6.7,6.7,0,1,1-6.7,6.7A6.71,6.71,0,0,1,81.19,27Z" transform="translate(-5 -17.98)"/><path class="cls-1" d="M88.61,45.17H73.77a6.4,6.4,0,0,0-6.39,6.39V66.44a6.37,6.37,0,0,0,4.38,6.07v8.58a6.34,6.34,0,0,0,6.33,6.32h6.2a6.34,6.34,0,0,0,6.33-6.32V72.51A6.37,6.37,0,0,0,95,66.44V51.56A6.4,6.4,0,0,0,88.61,45.17ZM92,66.44a3.38,3.38,0,0,1-3,3.37,1.51,1.51,0,0,0-1.35,1.49v9.79a3.32,3.32,0,0,1-3.32,3.32h-6.2a3.33,3.33,0,0,1-3.33-3.32V71.3a1.5,1.5,0,0,0-1.35-1.49,3.38,3.38,0,0,1-3-3.37V51.56a3.39,3.39,0,0,1,3.39-3.39H88.61A3.39,3.39,0,0,1,92,51.56Z" transform="translate(-5 -17.98)"/><path class="cls-1" d="M18.81,43.38a9.7,9.7,0,1,0-9.7-9.7A9.71,9.71,0,0,0,18.81,43.38Zm0-16.4a6.7,6.7,0,1,1-6.7,6.7A6.71,6.71,0,0,1,18.81,27Z" transform="translate(-5 -17.98)"/><path class="cls-1" d="M9.39,72.51v8.58a6.33,6.33,0,0,0,6.32,6.32h6.2a6.34,6.34,0,0,0,6.33-6.32V72.51a6.37,6.37,0,0,0,4.38-6.07V51.56a6.4,6.4,0,0,0-6.39-6.39H11.39A6.4,6.4,0,0,0,5,51.56V66.44A6.36,6.36,0,0,0,9.39,72.51ZM8,51.56a3.39,3.39,0,0,1,3.39-3.39H26.23a3.39,3.39,0,0,1,3.39,3.39V66.44a3.38,3.38,0,0,1-3,3.37,1.5,1.5,0,0,0-1.34,1.49v9.79a3.33,3.33,0,0,1-3.33,3.32h-6.2a3.32,3.32,0,0,1-3.32-3.32V71.3A1.51,1.51,0,0,0,11,69.81a3.38,3.38,0,0,1-3-3.37Z" transform="translate(-5 -17.98)"/></svg>